<?xml version="1.0" standalone="no"?>
<!DOCTYPE svg PUBLIC "-//W3C//DTD SVG 20010904//EN"
 "http://www.w3.org/TR/2001/REC-SVG-20010904/DTD/svg10.dtd">
<svg version="1.0" xmlns="http://www.w3.org/2000/svg"
 width="260.000000pt" height="260.000000pt" viewBox="0 0 260.000000 260.000000"
 preserveAspectRatio="xMidYMid meet">
<metadata>
Created by potrace 1.11, written by Peter Selinger 2001-2013
</metadata>
<g transform="translate(0.000000,260.000000) scale(0.100000,-0.100000)"
fill="#000000" stroke="none">
<path d="M809 2276 l-486 -325 0 -325 0 -326 488 0 489 0 0 -159 c0 -88 -3
-162 -7 -164 -5 -3 -30 -8 -56 -11 -26 -4 -69 -11 -95 -16 -26 -4 -67 -11 -92
-15 -25 -4 -65 -10 -90 -15 -39 -7 -77 -1 -265 46 -211 53 -224 55 -310 48
-49 -3 -92 -7 -95 -9 -3 -2 -43 -6 -90 -9 -47 -4 -94 -9 -105 -11 -11 -2 -37
-4 -57 -4 l-38 -1 0 -166 0 -166 324 -325 324 -325 139 69 c76 38 154 78 173
88 19 11 37 19 40 20 3 0 98 47 211 103 l205 103 55 -25 c30 -13 194 -86 364
-161 171 -76 339 -151 374 -167 35 -16 68 -25 72 -21 4 4 40 51 78 103 39 52
74 100 79 106 5 5 30 39 56 73 l46 63 0 474 0 474 -425 0 -425 0 0 523 0 522
-193 128 c-106 70 -195 127 -197 127 -3 0 -224 -146 -491 -324z"/>
</g>
</svg>
